# xmcd CD database file
#
# Track frame offsets:
#	150
#	15285
#	30122
#	42582
#	57427
#	71982
#	86005
#	100170
#	113222
#	125537
#	138605
#	153442
#	166180
#	179832
#	191035
#	203575
#	216750
#	229850
#
# Disc length: 3216 seconds
#
# Revision: 0
# Processed by: cddbd v1.5.2PL0 Copyright (c) Steve Scherf et al.
# Submitted via: CDex 1.51
#
DISCID=fe0c8e12
DTITLE=Alberta Hunter - Beale Street Blues
DYEAR=1996
DGENRE=Blues
TTITLE0=Sugar
TTITLE1=How Long Sweet Daddy, Sweet Long
TTITLE2=I'm Hard To Satisfy
TTITLE3=Beale Street Blues
TTITLE4=Your Jelly Roll Is Good
TTITLE5=My Particular Man
TTITLE6=I'm Going To See My Man
TTITLE7=You Can Have My Man If He Comes To See You Too
TTITLE8=Give Me All The Love You've Got
TTITLE9=Nobody Knows The Way I Feed Dis Mornin'
TTITLE10=Miss Otis Regrets
TTITLE11=Fine and Mellow
TTITLE12=Two Cigarettes In The Dark
TTITLE13=I Won't Let You Down
TTITLE14=Someday Sweetheart
TTITLE15=Two Little Flies On A Lump Of Sugar
TTITLE16=Downhearted Blues
TTITLE17=My Castle's Rockin'
EXTD=YEAR: 1996
EXTT0=
EXTT1=
EXTT2=
EXTT3=
EXTT4=
EXTT5=
EXTT6=
EXTT7=
EXTT8=
EXTT9=
EXTT10=
EXTT11=
EXTT12=
EXTT13=
EXTT14=
EXTT15=
EXTT16=
EXTT17=
PLAYORDER=
